<?xml version="1.0" encoding="iso-8859-1"?>
<!-- Uploaded to: SVG Repo, www.svgrepo.com, Generator: SVG Repo Mixer Tools -->
<svg height="800px" width="800px" version="1.1" id="Capa_1" xmlns="http://www.w3.org/2000/svg" xmlns:xlink="http://www.w3.org/1999/xlink" 
	 viewBox="0 0 19.039 19.039" xml:space="preserve">
<g>
	<g>
		<path style="fill:#030104;" d="M2.95,5.087c-0.225,0-0.352,0.019-0.418,0.03v1.128h0.364c0.46,0,0.734-0.231,0.734-0.588
			C3.629,5.282,3.374,5.093,2.95,5.087z"/>
		<path style="fill:#030104;" d="M10.581,5.087c-0.225,0-0.351,0.019-0.418,0.03v1.128h0.364c0.46,0,0.733-0.231,0.733-0.588
			C11.26,5.282,11.004,5.093,10.581,5.087z"/>
		<path style="fill:#030104;" d="M6.794,5.123H6.783C6.722,5.366,6.662,5.675,6.595,5.911L6.353,6.778h0.903L7.002,5.911
			C6.929,5.669,6.856,5.366,6.794,5.123z"/>
		<path style="fill:#030104;" d="M13.132,8.292V4.951c0-0.678-0.549-1.228-1.227-1.228H1.557c-0.678,0-1.228,0.549-1.228,1.228
			v3.341c0,0.678,0.549,1.228,1.228,1.228h10.349C12.584,9.52,13.132,8.97,13.132,8.292z M3.756,8.518
			C3.689,8.403,3.592,8.07,3.471,7.566C3.362,7.057,3.185,6.918,2.81,6.911H2.532v1.606H1.616V4.486
			c0.297-0.047,0.739-0.084,1.23-0.084c0.606,0,1.031,0.09,1.322,0.321C4.41,4.917,4.543,5.202,4.543,5.578
			c0,0.521-0.37,0.878-0.721,1.006v0.018C4.107,6.718,4.264,6.99,4.368,7.366c0.126,0.461,0.254,0.995,0.333,1.152H3.756z
			 M7.705,8.518L7.39,7.469H6.22L5.928,8.518H4.971l1.25-4.086h1.212L8.7,8.518H7.705z M11.102,7.566
			c-0.109-0.509-0.286-0.648-0.661-0.655h-0.278v1.606H9.247V4.486c0.296-0.047,0.739-0.084,1.231-0.084
			c0.605,0,1.029,0.09,1.321,0.321c0.241,0.194,0.376,0.479,0.376,0.855c0,0.521-0.371,0.878-0.721,1.006v0.018
			c0.285,0.116,0.44,0.388,0.544,0.764c0.128,0.461,0.256,0.995,0.334,1.152h-0.945C11.32,8.403,11.223,8.07,11.102,7.566z"/>
		<path style="fill:#030104;" d="M18.198,0H4.836C4.554,0,4.325,0.228,4.325,0.511v2.443H5.86V1.281h11.237v12.026l-3.048-0.003
			c-0.15,0-0.294,0.06-0.4,0.166c-0.107,0.105-0.166,0.251-0.166,0.401l0.011,3.813H5.86v-7.416H4.325v8.259
			c0,0.282,0.229,0.512,0.511,0.512h9.966c0.145,0,0.283-0.063,0.381-0.171l3.396-3.803c0.084-0.093,0.13-0.215,0.13-0.34V0.511
			C18.709,0.228,18.479,0,18.198,0z"/>
	</g>
</g>
</svg>